<svg class="svg-icon" style="width: 1em; height: 1em; vertical-align: middle; fill: currentColor; overflow: hidden;" viewBox="0 0 1024 1024" xmlns="http://www.w3.org/2000/svg">
  <path d="M384 256a42.666667 42.666667 0 0 0-42.666667-42.666667H298.666667a42.666667 42.666667 0 0 0-42.666667 42.666667v554.666667a42.666667 42.666667 0 0 0 42.666667 42.666666h42.666666a42.666667 42.666667 0 0 0 42.666667-42.666666V256z m384 0a42.666667 42.666667 0 0 0-42.666667-42.666667h-42.666666a42.666667 42.666667 0 0 0-42.666667 42.666667v554.666667a42.666667 42.666667 0 0 0 42.666667 42.666666h42.666666a42.666667 42.666667 0 0 0 42.666667-42.666666V256z"></path>
</svg>
